<svg
            id="Component_1_1"
            data-name="Component 1 – 1"
            xmlns="http://www.w3.org/2000/svg"
            viewBox="0 0 2822.466 3416.939"
          >
            <g id="layer3">
              <ellipse
                id="ellipse5047"
                cx="551.602"
                cy="207.6"
                rx="551.602"
                ry="207.6"
                transform="translate(1634.353)"
                fill="#3a494b"
              />
              <ellipse
                id="ellipse5049"
                cx="538.871"
                cy="199.673"
                rx="538.871"
                ry="199.673"
                transform="translate(133.685 6.795)"
                fill="#3a494b"
              />
              <ellipse
                id="ellipse5034"
                cx="522.091"
                cy="185.775"
                rx="522.091"
                ry="185.775"
                transform="translate(1648.937 44.474)"
                fill="#b9f9ff"
              />
              <path
                id="path5177"
                d="M738.885,229.24,505.6,247.356,800.356,420.369c81.25-11.086,153.424-29.223,209.96-52.762L738.885,229.239Z"
                transform="translate(1557.448 -16.688)"
                fill="#506467"
                fill-rule="evenodd"
              />
              <ellipse
                id="path5032"
                cx="522.091"
                cy="185.775"
                rx="522.091"
                ry="185.775"
                transform="translate(156.333 44.474)"
                fill="#b9f9ff"
              />
              <path
                id="path5162"
                d="M357.633,234.831,151.126,366.08c94.68,29.031,215.487,45.013,340.47,45.042q4.524-.042,9.046-.113L588.65,279Z"
                transform="translate(189.23 4.896)"
                fill="#506467"
                fill-rule="evenodd"
              />
              <ellipse
                id="ellipse4956"
                cx="1376.586"
                cy="419.826"
                rx="1376.586"
                ry="419.826"
                transform="translate(69.293 2577.288)"
                fill="#3a494b"
              />
              <ellipse
                id="path4947"
                cx="1363.452"
                cy="380.145"
                rx="1363.452"
                ry="380.145"
                transform="translate(79.224 2572.448)"
                fill="#b9f9ff"
              />
              <path
                id="path5038"
                d="M1962.309,726.047c-71.8,54.465-146.228,108.763-224.236,162.766,1.7,11.315,59.044,16.595,119.487,16.478s123.994-5.625,138.092-15.89c56.6-39,108.776-78.254,158.224-117.686-58.661-16.839-122.792-32.127-191.568-45.668ZM361.2,730.777c-68.582,14.219-132.218,30.2-190.066,47.745,40.883,31.813,83.706,63.51,129.447,95.027,14.1,10.264,77.637,15.773,138.08,15.89s117.784-5.163,119.487-16.478c-68.18-47.2-133.579-94.621-196.948-142.184Z"
                transform="translate(266.472 1900.899)"
                fill="#506467"
              />
              <path
                id="rect4958"
                d="M292.366,265.468c76.674-59.15,245.917-43.993,257.1,3.958C527.052,467.57,479.145,661.266,436.32,855.663c-44.066,200.032-75.531,404.588-65.092,609.884C385.234,1741,440.758,2012.2,484.375,2284.056c29.873,186.193,63.958,371.741,103.85,556.074-22.741,61.71-247.415,57.577-258.073,1.6C249.207,2471.958,223.319,2093.354,185.708,1717.5c-23.153-231.368-25.921-465.125,4.19-696.043,32.892-252.25,88.682-501.429,102.469-755.989Z"
                transform="translate(253.685 -25.455)"
                fill="#3a494b"
              />
              <path
                id="rect4960"
                d="M450.212,262.929C420.874,506.436,349.828,761.11,307.4,1002.3c-33.113,188.237-52.065,373.14-32.414,563.595,28.381,275.061,76.715,554.064,120.613,826.969,22.367,139.052,58.377,296.648,87.622,434.42-15.089,32.8-85.11,31.706-127.167,31.808-76.7-362.448-99.894-782.642-143.578-1150.142-26.588-223.68-30.222-450.527,1.741-673.955,36.351-254.1,68.376-546.1,92.385-802.065,31.087-10.436,132.738-1.205,143.611,30Z"
                transform="translate(344.614 -18.314)"
                fill="#b9f9ff"
              />
              <path
                id="path4973"
...(about 437 lines omitted)...
                <g id="g4904" transform="matrix(1, 0.001, 0, 1, 0.031, 0)">
                  <path
                    id="path4906"
                    d="M58,18.2C53.946,18.92,41.524,9.075,15.9.336,9.6-1.811,1.238,6.737.193,14.511c-1.972,14.664,11.6,29.055,22.218,36.619,23.258,16.561,31.13,14.94,46.877,14.915,7.553-.012,4.088-18.446,1.963-27.169C69.216,30.524,65.155,16.938,58,18.2Z"
                    transform="translate(0 0)"
                    fill="#394655"
                    fill-rule="evenodd"
                  />
                  <path
                    id="path4908"
                    d="M8.507.006c-12.006.4-9.8,18.719-2.634,26.941C22.9,46.484,23.8,44.35,45.953,52.28c7.692,2.753,19.221,1.289,26.6-3.544.889-12.295-3.092-25.769-10.441-34.649-8.765,4.368-27.189-2.348-32.9-4.73C22.8,6.682,15.357-.224,8.507.006Z"
                    transform="translate(6.005 7.027)"
                    fill="#e1d6b9"
                    fill-rule="evenodd"
                  />
                </g>
              </g>
              <g id="layer4" transform="translate(152.924 41.732)" opacity="0.3">
                <path
                  id="path4982"
                  d="M893.75,679.372c-18.279,26.5-82.554-23.728-119.8-30.174-124.59-21.562-245.132,18.678-364.065,63.762-40.319,15.284-24.961-76.8-75.281-89.766-44.918-11.576-53.318,40.922-6.582,61.932,42.387,19.055,42.792,53.748-.4,93.454-57.24,52.624-32.838,141.55-15.389,209.27,25.346,98.365,82.328,196.045,64.631,299.993-12.6,73.983-52.35,143.915-40.626,221.787,10.527,69.92,33.23,145.293,98.98,182.311,114.121,64.252,253.569,65.215,377.02,31.482,78.46-21.44,143.848-76.922,179.218-150.621,26.5-55.225,29.6-116.791,14.786-174.818-15.812-61.919-18.168-126.469-3.1-188.786,14.92-61.723,17.826-124.98,18.12-188.278.4-85.094,10.272-176.3-30.173-255.76-16.748-32.9-116.921-66.733-47.6-94.958,36.916-15.032,80.94-57.513,30.344-84.788-41.227-22.224-61.8,67.462-80.076,93.957Z"
                  transform="translate(-291.818 -581.911)"
                  fill-rule="evenodd"
                />
              </g>
            </g>
            <text
              id="_"
              data-name="  ⠀⠀⠀⠀⠀⠀⠀⠀⠀⠀⠀⠀⣀⠀⠀⠀⠀⠀⠀⠀
          ⡠⠀⢄⡀⠀⣀⠀⠀⢀⣀⡴⠉⠀⠃⠀⠀⠀⠀⠀⠀
          ⢇⠀⠀⣿⣾⣯⣍⣽⣿⣿⣿⡤⢀⠇⠀⠀⠀⠀⠀⠀
          ⠀⠑⢼⣿⣿⣿⣿⣿⣿⣿⣿⣷⣷⣤⡀⠀⠀⠀⠀⠀
          ⠀⢸⣿⣿⣟⣻⣿⣿⣿⣭⣿⣿⣿⣿⡟⠢⡀⠀⠀⠀
          ⠀⢸⡏⢻⣿⢿⣿⣿⣿⡿⣿⡟⣿⠟⠀⠀⣿⣦⠀⠀
          ⠀⢸⠛⠮⠝⢋⠙⣻⣊⢁⠈⠚⢃⣀⣴⣾⣿⣿⣷⡀
          ⠀⣾⣶⣤⡠⠀⠉⠀⠈⢀⢀⣾⣿⣿⣿⣿⣿⣿⠿⣧
          ⠀⠿⡟⠛⠻⠷⣶⠀⣶⠟⠋⠛⣿⠗⠈⠈⠉⢠⣪⣿
          ⠀⠸⡈⠙⣄⡀⢸⢸⡿⣄⡦⠋⠁⠀⠀⠀⡠⣺⣿⣿
          ⠀⠀⠙⢢⡤⠙⠛⡏⣅⣠⠶⠖⠒⠒⠈⠁⠐⢾⣿⡏
          ⠀⠀⠀⠈⡄⠀⠀⠸⣿⡷⠀⠀⠀⠀⠀⢀⢠⣿⣿⠃
          ⠀⠀"
              transform="translate(1270.733 938.303)"
              stroke="#000"
              stroke-width="1"
              font-size="20"
              font-family="HelveticaNeue-Bold, Helvetica Neue"
              font-weight="700"
            >
              <tspan x="0" y="20" xml:space="preserve"></tspan>
              <tspan
                y="20"
                font-family="AppleBraille, Apple Braille"
                font-weight="400"
              >
                ⠀⠀⠀⠀⠀⠀⠀⠀⠀⠀⠀⠀⣀⠀⠀⠀⠀⠀⠀⠀
              </tspan>
              <tspan y="20"></tspan>
              <tspan font-family="AppleBraille, Apple Braille" font-weight="400">
                <tspan x="0" y="47">⡠⠀⢄⡀⠀⣀⠀⠀⢀⣀⡴⠉⠀⠃⠀⠀⠀⠀⠀⠀</tspan>
                <tspan
                  y="47"
                  font-family="HelveticaNeue-Bold, Helvetica Neue"
                  font-weight="700"
                ></tspan>
                <tspan x="0" y="74">⢇⠀⠀⣿⣾⣯⣍⣽⣿⣿⣿⡤⢀⠇⠀⠀⠀⠀⠀⠀</tspan>
                <tspan
                  y="74"
                  font-family="HelveticaNeue-Bold, Helvetica Neue"
                  font-weight="700"
                ></tspan>
                <tspan x="0" y="101">⠀⠑⢼⣿⣿⣿⣿⣿⣿⣿⣿⣷⣷⣤⡀⠀⠀⠀⠀⠀</tspan>
                <tspan
                  y="101"
                  font-family="HelveticaNeue-Bold, Helvetica Neue"
                  font-weight="700"
                ></tspan>
                <tspan x="0" y="128">⠀⢸⣿⣿⣟⣻⣿⣿⣿⣭⣿⣿⣿⣿⡟⠢⡀⠀⠀⠀</tspan>
                <tspan
                  y="128"
                  font-family="HelveticaNeue-Bold, Helvetica Neue"
                  font-weight="700"
                ></tspan>
                <tspan x="0" y="155">⠀⢸⡏⢻⣿⢿⣿⣿⣿⡿⣿⡟⣿⠟⠀⠀⣿⣦⠀⠀</tspan>
                <tspan
                  y="155"
                  font-family="HelveticaNeue-Bold, Helvetica Neue"
                  font-weight="700"
                ></tspan>
                <tspan x="0" y="182">⠀⢸⠛⠮⠝⢋⠙⣻⣊⢁⠈⠚⢃⣀⣴⣾⣿⣿⣷⡀</tspan>
                <tspan
                  y="182"
                  font-family="HelveticaNeue-Bold, Helvetica Neue"
                  font-weight="700"
                ></tspan>
                <tspan x="0" y="209">⠀⣾⣶⣤⡠⠀⠉⠀⠈⢀⢀⣾⣿⣿⣿⣿⣿⣿⠿⣧</tspan>
                <tspan
                  y="209"
                  font-family="HelveticaNeue-Bold, Helvetica Neue"
                  font-weight="700"
                ></tspan>
                <tspan x="0" y="236">⠀⠿⡟⠛⠻⠷⣶⠀⣶⠟⠋⠛⣿⠗⠈⠈⠉⢠⣪⣿</tspan>
                <tspan
                  y="236"
                  font-family="HelveticaNeue-Bold, Helvetica Neue"
                  font-weight="700"
                ></tspan>
                <tspan x="0" y="263">⠀⠸⡈⠙⣄⡀⢸⢸⡿⣄⡦⠋⠁⠀⠀⠀⡠⣺⣿⣿</tspan>
                <tspan
                  y="263"
                  font-family="HelveticaNeue-Bold, Helvetica Neue"
                  font-weight="700"
                ></tspan>
                <tspan x="0" y="290">⠀⠀⠙⢢⡤⠙⠛⡏⣅⣠⠶⠖⠒⠒⠈⠁⠐⢾⣿⡏</tspan>
                <tspan
                  y="290"
                  font-family="HelveticaNeue-Bold, Helvetica Neue"
                  font-weight="700"
                ></tspan>
                <tspan x="0" y="317">⠀⠀⠀⠈⡄⠀⠀⠸⣿⡷⠀⠀⠀⠀⠀⢀⢠⣿⣿⠃</tspan>
                <tspan
                  y="317"
                  font-family="HelveticaNeue-Bold, Helvetica Neue"
                  font-weight="700"
                ></tspan>
                <tspan x="0" y="344">⠀⠀⠀⠀⠘⠦⣀⠀⣿⣷⣦⠄⠀⠀⠀⢝⣿⣿⡟⠀</tspan>
                <tspan
                  y="344"
                  font-family="HelveticaNeue-Bold, Helvetica Neue"
                  font-weight="700"
                ></tspan>
                <tspan x="0" y="371">⠀⠀⠀⣤⣤⣄⣊⡉⠟⠿⢿⡷⠗⠚⣲⠽⠿⠟⠁⠀</tspan>
                <tspan
                  y="371"
                  font-family="HelveticaNeue-Bold, Helvetica Neue"
                  font-weight="700"
                ></tspan>
              </tspan>
            </text>
          </svg>